<svg xmlns="http://www.w3.org/2000/svg" width="600" height="600" viewBox="0 0 600 600" version="1.1"><path d="" stroke="none" fill="#a4c4f4" fill-rule="evenodd"/><path d="M 270.509 4.500 C 270.798 6.700, 271.490 11.875, 272.047 16 C 274.022 30.622, 270.340 51.270, 263.220 65.500 C 261.844 68.250, 257.015 75.945, 252.487 82.600 C 241.151 99.263, 239.600 103.508, 239.551 118 C 239.519 127.505, 239.922 130.715, 241.870 136.500 C 244.650 144.754, 249.263 153.379, 254.964 160.980 C 259.796 167.423, 271.002 179.331, 271.636 178.697 C 271.878 178.455, 269.236 174.487, 265.763 169.878 C 257.810 159.322, 250.723 145.659, 247.940 135.512 C 246.208 129.199, 245.863 125.687, 246.180 117.581 C 246.653 105.476, 248.210 101.582, 259.021 85.469 C 272.508 65.367, 276.444 53.509, 276.438 33 C 276.434 19.361, 275.134 11.624, 271.542 3.867 L 269.983 0.500 270.509 4.500 M 291.761 100.760 C 282.035 111.035, 279.507 128.741, 285.515 144.500 C 293.181 164.608, 294.982 170.643, 294.991 176.250 C 295 182.053, 296.257 183.902, 297.370 179.750 C 298.434 175.780, 298.019 165.652, 296.581 160.500 C 295.813 157.750, 293.592 151, 291.645 145.500 C 285.725 128.778, 285.810 116.965, 291.939 104.525 C 293.558 101.238, 294.764 98.430, 294.618 98.285 C 294.473 98.140, 293.187 99.254, 291.761 100.760 M 135.430 166.025 C 105.282 170.069, 84.196 182.022, 74.232 200.716 C 67.784 212.814, 67.826 212.324, 67.396 279.500 L 67.005 340.500 63.660 343.619 C 61.820 345.335, 57.692 347.720, 54.486 348.920 C 47.826 351.411, 32.234 353.985, 23.750 353.994 L 18 354 18 376.409 L 18 398.819 27.250 398.797 C 35.006 398.780, 38.046 399.290, 46.073 401.956 C 51.338 403.705, 58.763 406.861, 62.573 408.970 L 69.500 412.805 69.500 477.152 L 69.500 541.500 71.740 546.309 C 80.063 564.181, 94.345 578.141, 110.682 584.375 C 123.714 589.348, 144.814 592.543, 150.418 590.393 C 151.777 589.872, 152 587.332, 152 572.412 C 152 552.812, 152.960 554.947, 143.500 553.506 C 129.664 551.398, 116.237 544.186, 110.413 535.734 C 104.862 527.679, 104.689 525.238, 105.505 466.456 C 106.177 418.120, 106.090 412.815, 104.546 407.424 C 102.448 400.104, 98.241 392.418, 91.870 384.271 C 89.192 380.846, 87 377.744, 87 377.380 C 87 377.015, 88.751 373.944, 90.891 370.555 C 93.031 367.167, 96.891 360.194, 99.469 355.061 L 104.157 345.727 105.999 291.114 C 107.012 261.076, 107.597 233.551, 107.299 229.947 C 106.853 224.542, 107.128 222.670, 108.870 219.255 C 112.895 211.365, 122.734 206.213, 140.316 202.789 C 146.467 201.591, 151.837 200.136, 152.248 199.555 C 152.659 198.975, 152.884 191.075, 152.748 182 L 152.500 165.500 147 165.356 C 143.975 165.276, 138.769 165.577, 135.430 166.025 M 391.650 168 C 390.844 172.030, 390.814 192.244, 391.607 197.036 L 392.192 200.573 403.300 202.704 C 417.371 205.405, 428.042 210.516, 432.293 216.592 L 435.156 220.684 435.457 245.592 C 435.622 259.291, 436.325 287.150, 437.019 307.500 C 438.464 349.864, 438.070 347.923, 449.020 366.693 C 452.309 372.332, 455 377.199, 455 377.509 C 455 377.819, 452.676 381.094, 449.834 384.786 C 444.178 392.139, 438.604 403.238, 437.424 409.500 C 437.010 411.700, 436.633 439.375, 436.586 471 L 436.500 528.500 434.209 532.791 C 428.022 544.378, 417.091 550.349, 394.250 554.618 C 392.019 555.035, 392 555.183, 392 572.500 L 392 589.962 394.503 590.590 C 398.092 591.491, 410.333 590.481, 418.500 588.610 C 441.907 583.247, 458.471 570.067, 468.279 549 C 471.076 542.993, 471.363 541.325, 472.059 527 C 472.474 518.475, 472.855 511.496, 472.906 511.490 C 472.958 511.485, 484.587 511.492, 498.750 511.506 C 536.868 511.543, 542.929 510.678, 557.497 503.127 C 566.655 498.380, 574.859 490.129, 579.152 481.348 L 582.500 474.500 582.500 381.479 L 582.500 288.458 579.084 281.479 C 574.515 272.146, 565.610 263.385, 555.845 258.617 C 542.568 252.134, 539.878 251.741, 505.402 251.252 L 474.305 250.812 473.673 233.656 C 473.325 224.220, 472.425 214.250, 471.671 211.500 C 464.336 184.731, 439.443 168.574, 400.686 165.430 L 392.300 164.749 391.650 168 M 229 230.150 C 187.148 232.146, 152.288 237.809, 145.820 243.663 C 139.815 249.098, 148.353 254.071, 170.500 258.040 C 219.904 266.893, 319.096 266.893, 368.500 258.040 C 390.647 254.071, 399.185 249.098, 393.180 243.663 C 381.933 233.485, 300.174 226.755, 229 230.150 M 474 259.883 C 474 265.139, 474.240 265.831, 476.250 266.370 C 477.488 266.701, 488.625 266.995, 501 267.021 C 531.503 267.087, 540.873 268.915, 551.798 276.929 C 555.770 279.843, 562 288.064, 562 290.392 C 562 290.942, 560.726 289.382, 559.168 286.926 C 555.531 281.191, 550.889 277.305, 544 274.229 C 534.776 270.110, 525.739 269.073, 498.750 269.035 L 474 269 474 275 L 474 281 494.750 281.031 C 506.163 281.048, 518.875 281.489, 523 282.012 C 532.868 283.263, 542.203 287.913, 546.697 293.816 C 553.205 302.366, 553.091 300.686, 552.781 383.611 L 552.500 458.500 550.233 463.100 C 545.856 471.985, 537.920 477.752, 526.785 480.140 C 523.913 480.755, 510.801 481.305, 497.307 481.374 L 473.001 481.500 473 487.250 L 473 493 495.059 493 C 509.510 493, 516.905 493.345, 516.500 494 C 516.119 494.616, 507.684 495, 494.523 495 L 473.164 495 472.832 502.083 L 472.500 509.166 505 508.780 C 537.100 508.399, 537.599 508.361, 545.578 505.708 C 564.652 499.365, 577.307 486.169, 579.953 469.862 C 581.306 461.523, 581.362 300.783, 580.015 292.555 C 577.861 279.401, 568.555 267.834, 554.589 260.951 C 541.981 254.737, 536.802 254.037, 503.250 254.017 L 474 254 474 259.883 M 473.882 310.164 C 473.816 324.649, 473.842 337.175, 473.938 338 C 474.842 345.723, 490.492 352.301, 511.189 353.658 L 521 354.301 521 376.553 L 521 398.805 512.750 398.779 C 502.918 398.748, 490.052 402.623, 478.124 409.208 L 470.718 413.296 471.354 422.898 C 471.703 428.179, 471.992 443.006, 471.995 455.846 L 472 479.192 498.750 478.755 C 528.486 478.269, 532.445 477.593, 540.200 471.678 C 545.690 467.491, 548.615 462.216, 549.991 454.026 C 550.734 449.601, 550.992 424.799, 550.793 377 L 550.500 306.500 548.111 301.212 C 545.147 294.654, 538.814 288.935, 531.800 286.484 C 527.302 284.912, 522.528 284.571, 500.250 284.230 L 474 283.828 473.882 310.164 M 143.344 382.041 C 131.437 384.397, 121.854 392.147, 118.320 402.280 C 115.529 410.284, 115.817 429.522, 118.843 437.174 C 122.950 447.559, 131.208 453.933, 143.278 456.035 C 162.144 459.320, 179.444 449.974, 184.822 433.593 C 187.279 426.109, 187.774 412.706, 185.914 404.033 C 182.350 387.417, 164.025 377.950, 143.344 382.041 M 215 384.114 C 211.425 385.151, 205.800 386.338, 202.500 386.750 C 196.703 387.475, 196.490 387.606, 196.197 390.614 C 195.903 393.629, 196.039 393.744, 200.496 394.247 C 203.028 394.532, 205.414 395.081, 205.799 395.467 C 206.185 395.852, 206.500 407.172, 206.500 420.621 C 206.500 447.763, 206.706 446.956, 199.769 446.985 C 196.653 446.997, 195.937 447.402, 195.425 449.443 C 195.088 450.787, 195.072 452.307, 195.390 452.822 C 195.718 453.352, 204.675 453.765, 216.040 453.774 L 236.111 453.790 235.806 450.656 C 235.535 447.884, 235.066 447.453, 231.739 446.917 C 229.670 446.584, 227.645 445.979, 227.239 445.574 C 225.875 444.212, 225.696 407.149, 227.037 403.910 C 229.833 397.161, 241.008 394.023, 246.097 398.558 C 250.760 402.714, 251.214 405.751, 250.863 430.446 L 250.535 453.500 265.517 453.500 L 280.500 453.500 280.500 450.500 C 280.500 447.767, 280.174 447.473, 276.826 447.194 C 274.805 447.026, 272.698 446.341, 272.144 445.673 C 271.548 444.955, 271.005 434.639, 270.817 420.479 C 270.472 394.367, 270.217 393.090, 264.241 387.500 C 260.371 383.880, 252.060 381.637, 245.536 382.452 C 240.335 383.102, 238.032 384.351, 230.087 390.834 L 226 394.168 226 388.084 C 226 380.985, 225.901 380.949, 215 384.114 M 304 384.582 C 299.325 385.845, 293.925 386.913, 292 386.955 C 287.376 387.055, 285.752 388.211, 286.163 391.113 C 286.438 393.062, 287.233 393.598, 290.500 394.035 C 292.700 394.329, 295.063 394.918, 295.750 395.344 C 296.687 395.924, 297 401.456, 297 417.410 C 297 439.264, 297.500 442.908, 301.237 448.273 C 305.275 454.069, 316.455 457.307, 324.728 455.075 C 327.485 454.331, 331.011 452.032, 334.862 448.467 C 338.110 445.460, 340.932 442.999, 341.134 442.999 C 341.335 442.998, 341.347 445.454, 341.160 448.456 L 340.820 453.915 355.660 453.708 L 370.500 453.500 370.803 450.386 C 371.097 447.371, 370.961 447.256, 366.504 446.753 C 363.972 446.468, 361.586 445.919, 361.201 445.532 C 360.815 445.146, 360.521 430.693, 360.547 413.415 C 360.585 388.455, 360.330 382, 359.308 382 C 358.601 382, 354.642 382.927, 350.511 384.061 C 346.381 385.194, 340.188 386.431, 336.750 386.811 C 330.594 387.490, 330.495 387.549, 330.187 390.750 C 329.880 393.926, 329.964 394, 333.865 394 C 340.748 394, 341 394.745, 341 415.086 L 341 433.029 337.665 436.669 C 334.775 439.822, 333.597 440.369, 328.847 440.763 C 324.065 441.159, 322.990 440.895, 320.432 438.697 L 317.500 436.176 317.204 409.088 L 316.908 382 314.704 382.143 C 313.492 382.222, 308.675 383.319, 304 384.582 M 400 383.630 C 397.525 384.418, 391.941 385.625, 387.590 386.311 C 379.471 387.593, 377.078 389.154, 378.309 392.364 C 378.717 393.427, 380.108 394, 382.277 394 C 384.115 394, 386.491 394.639, 387.559 395.421 C 389.390 396.762, 389.496 398.201, 389.438 420.900 C 389.404 434.132, 389.047 445.286, 388.646 445.688 C 388.244 446.089, 385.797 446.661, 383.208 446.959 C 378.764 447.470, 378.500 447.668, 378.500 450.500 L 378.500 453.500 399.726 453.693 C 413.012 453.814, 421.183 453.512, 421.570 452.886 C 421.910 452.336, 421.912 450.787, 421.575 449.443 C 421.051 447.356, 420.373 447, 416.915 447 C 408.842 447, 409 447.430, 409 425.388 L 409 405.846 411.923 402.923 C 415.580 399.266, 422.252 398.837, 426.273 402 C 431.627 406.211, 432.967 403.667, 432.989 389.250 L 433 382 427.750 382.022 C 421.824 382.047, 420.584 382.816, 413.619 390.783 L 409 396.067 409 389.033 C 409 381.024, 408.719 380.855, 400 383.630 M 143.265 392.752 C 138.615 397.096, 137.498 401.803, 137.513 417 C 137.528 433.556, 139.204 440.216, 144.532 444.894 C 150.771 450.372, 160.025 448.622, 163.561 441.294 C 164.942 438.432, 165.492 434.429, 165.800 425 C 166.601 400.452, 161.995 390.014, 150.356 390.004 C 147.211 390.001, 145.501 390.664, 143.265 392.752 M 238 473.550 C 235.525 474.259, 232.262 474.875, 230.750 474.920 C 227.093 475.027, 226.899 478.507, 230.500 479.411 C 233.263 480.104, 233.250 480.001, 233.250 501.500 C 233.250 525.996, 233.250 526, 230.607 526 C 228.311 526, 226.490 528.157, 227.736 529.402 C 228.064 529.731, 233.208 530, 239.167 530 C 249.209 530, 250 529.859, 250 528.066 C 250 526.700, 249.193 526.040, 247.250 525.816 C 244.601 525.512, 244.489 525.261, 244.196 519.001 L 243.892 512.503 247.510 516.001 C 249.500 517.926, 252.955 521.862, 255.186 524.750 L 259.243 530 266.122 530 C 272.333 530, 273 529.806, 273 528 C 273 526.900, 272.341 526, 271.536 526 C 270.274 526, 255.006 509.340, 254.216 507.101 C 253.754 505.793, 262.908 498.796, 266.857 497.438 C 272.215 495.596, 271.550 493.561, 265.472 493.205 L 260.444 492.911 252.472 500.705 L 244.500 508.500 244.227 490.250 C 244.078 480.212, 243.628 472.059, 243.227 472.131 C 242.827 472.202, 240.475 472.841, 238 473.550 M 282.455 475.455 C 281.105 476.805, 280 478.830, 280 479.955 C 280 482.752, 283.472 486, 286.461 486 C 289.305 486, 293 482.478, 293 479.766 C 293 477.494, 288.683 473, 286.500 473 C 285.625 473, 283.805 474.105, 282.455 475.455 M 135.777 481.199 L 131.054 483.227 131.653 488.956 C 132.234 494.517, 132.160 494.750, 129.114 496.919 C 125.654 499.383, 125.819 501, 129.531 501 L 131.944 501 131.722 513.586 L 131.500 526.172 134.306 528.586 C 138.542 532.231, 143.745 531.890, 147.804 527.702 C 149.562 525.889, 151 524.115, 151 523.760 C 151 523.405, 149.088 522.977, 146.750 522.807 L 142.500 522.500 142.216 511.750 L 141.932 501 145.491 501 C 148.416 501, 149.228 500.531, 150.053 498.361 C 151.342 494.971, 150.794 494.518, 145.843 494.875 L 141.771 495.169 142.136 487.425 C 142.354 482.788, 142.099 479.579, 141.500 479.426 C 140.950 479.286, 138.375 480.084, 135.777 481.199 M 165 493.329 C 158.832 496.577, 158 497.458, 158 500.741 C 158 504.731, 160.585 505.222, 162 501.500 C 163.964 496.334, 174.635 499.689, 173.811 505.214 C 173.563 506.884, 172.090 507.682, 166.500 509.177 C 157.775 511.509, 154 515.062, 154 520.939 C 154 529.810, 163.094 534.158, 169.818 528.500 C 173.409 525.478, 174 525.407, 174 528 C 174 529.822, 174.667 530, 181.500 530 C 188.333 530, 189 529.822, 189 528 C 189 526.667, 188.333 526, 187 526 C 184.631 526, 184.616 525.909, 184.551 511 C 184.509 501.594, 184.169 499.013, 182.684 496.825 C 179.619 492.309, 170.398 490.486, 165 493.329 M 200.367 493.918 C 195.883 496.652, 194 499.831, 194 504.667 C 194 510.786, 196.855 513.538, 205.500 515.750 C 212.185 517.461, 212.514 517.684, 212.809 520.709 C 213.051 523.199, 212.567 524.238, 210.547 525.561 C 205.590 528.809, 198 525.307, 198 519.772 C 198 517.532, 197.593 516.931, 196.250 517.187 C 194.932 517.438, 194.368 518.829, 193.967 522.818 C 193.348 528.961, 193.765 529.491, 200.391 530.975 C 211.576 533.482, 221.687 527.954, 222.723 518.766 C 223.411 512.664, 220.006 508.653, 212.744 507.011 C 204.425 505.130, 204.056 504.974, 202.919 502.849 C 201.178 499.596, 204.376 496.829, 209.448 497.202 C 212.953 497.460, 213.736 497.972, 215.247 501 C 217.795 506.107, 219.444 505.472, 219.802 499.245 C 220.083 494.374, 219.914 493.918, 217.487 492.995 C 213.028 491.300, 203.849 491.795, 200.367 493.918 M 282.750 493.777 C 277.398 494.985, 276 495.684, 276 497.150 C 276 498.457, 276.734 499, 278.500 499 C 281.185 499, 281.250 499.270, 281.250 510.500 C 281.250 525.499, 281.165 526, 278.607 526 C 276.311 526, 274.490 528.157, 275.736 529.402 C 276.064 529.731, 281.208 530, 287.167 530 C 297.209 530, 298 529.859, 298 528.066 C 298 526.700, 297.193 526.040, 295.250 525.816 L 292.500 525.500 292.226 508.750 C 292.021 496.256, 291.640 492.032, 290.726 492.127 C 290.052 492.197, 286.462 492.939, 282.750 493.777 M 307.250 493.823 C 302.424 495.002, 301 495.766, 301 497.175 C 301 498.429, 301.743 499, 303.375 499 C 305.235 499, 305.886 499.678, 306.375 502.125 C 307.181 506.153, 307.175 515.442, 306.364 521.360 C 305.811 525.392, 305.418 526, 303.364 526 C 301.667 526, 301 526.564, 301 528 C 301 529.884, 301.667 530, 312.500 530 C 323.208 530, 324 529.867, 324 528.063 C 324 526.609, 323.190 526.049, 320.750 525.813 L 317.500 525.500 317.216 515.355 C 316.985 507.110, 317.233 504.910, 318.538 503.605 C 320.384 501.759, 325.076 501.476, 326.713 503.113 C 328.737 505.137, 330 502.957, 330 497.441 C 330 492.017, 329.990 492, 326.885 492 C 324.571 492, 322.899 492.950, 320.385 495.695 L 317 499.391 317 495.695 C 317 491.462, 316.953 491.453, 307.250 493.823 M 340.696 494.978 C 337.178 497.209, 336 498.574, 336 500.419 C 336 504.099, 338.023 504.689, 340.235 501.652 C 343.817 496.735, 351.516 498.851, 352.227 504.949 C 352.471 507.039, 351.880 507.434, 346.741 508.624 C 335.605 511.203, 333 513.640, 333 521.480 C 333 530.826, 341.309 534.092, 349.195 527.845 C 353.134 524.726, 353.174 524.717, 352.839 527.095 C 352.509 529.439, 352.700 529.507, 360.332 529.794 C 367.408 530.059, 368.130 529.914, 367.821 528.294 C 367.633 527.307, 366.472 526.356, 365.240 526.180 C 363.058 525.869, 363 525.540, 363 513.496 C 363 506.695, 362.561 499.976, 362.025 498.566 C 359.438 491.761, 348.634 489.944, 340.696 494.978 M 377 493.848 C 370.043 495.616, 368.077 498.221, 373.250 498.816 L 376 499.133 376 512.500 L 376 525.867 373.259 526.184 C 371.605 526.374, 370.385 527.195, 370.185 528.250 C 369.885 529.831, 370.921 530, 380.927 530 C 391.200 530, 392 529.861, 392 528.070 C 392 526.829, 391.196 526.025, 389.750 525.820 C 387.566 525.509, 387.500 525.163, 387.500 514.038 C 387.500 502.771, 387.544 502.552, 390.069 501.135 C 393.715 499.088, 397.771 500.320, 398.735 503.765 C 399.156 505.269, 399.381 511.788, 399.236 518.250 L 398.972 530 406.927 530 C 411.302 530, 415.104 529.641, 415.375 529.202 C 416.146 527.954, 414.698 526.269, 412.500 525.855 C 410.645 525.505, 410.464 524.481, 410 511.758 C 409.513 498.395, 409.428 497.965, 406.727 495.269 C 404.382 492.926, 403.121 492.500, 398.543 492.500 C 393.918 492.500, 392.686 492.927, 390.066 495.437 L 387 498.374 387 495.187 C 387 491.469, 386.581 491.413, 377 493.848 M 168.188 513.517 C 165.173 514.826, 164.905 515.294, 165.188 518.728 C 165.461 522.029, 165.851 522.540, 168.310 522.822 C 172.371 523.288, 174 521.443, 174 516.378 C 174 511.537, 173.412 511.248, 168.188 513.517 M 347 513.752 C 344 515.250, 343.500 516, 343.500 519 C 343.500 522.232, 343.754 522.524, 346.815 522.818 C 351.394 523.258, 353 521.585, 353 516.378 C 353 511.432, 352.277 511.115, 347 513.752" stroke="none" fill="#9cc4f4" fill-rule="evenodd"/></svg>